# xmcd
#
# Track frame offsets:
#	150
#	18256
#	32743
#	50125
#	87353
#	101256
#	120807
#	138605
#	149179
#	170902
#	188746
#	215849
#	237966
#
# Disc length: 3418 seconds
#
# Revision: 1
# Processed by: cddbd v1.5PL3 Copyright (c) Steve Scherf et al.
# Submitted via: audiograbber 1.80
#
DISCID=bf0d580d
DTITLE=Frank Bang - Frank Bang's Secret Stash
DYEAR=1900
DGENRE=
TTITLE0=Call The Devil My Friend
TTITLE1=Travel South
TTITLE2=Sweetest Things
TTITLE3=Cry Out Your Name - As The Crow Flies
TTITLE4=Got The Bill
TTITLE5=One Mo'Gin
TTITLE6=I'd Rather Be Blind Crippled and Crazy
TTITLE7=24 Hours A Day
TTITLE8=Find Of A Lifetime
TTITLE9=One Step
TTITLE10=It Don't Make Sense (If You Can't Make Peace)
TTITLE11=Heartaches Were Nickels
TTITLE12=Keep You Satisfied
EXTD=
EXTT0=
EXTT1=
EXTT2=
EXTT3=
EXTT4=
EXTT5=
EXTT6=
EXTT7=
EXTT8=
EXTT9=
EXTT10=
EXTT11=
EXTT12=
PLAYORDER=
